<?xml version="1.0" encoding="UTF-8"?>
<svg id="Capa_2" data-name="Capa 2" xmlns="http://www.w3.org/2000/svg" viewBox="0 0 892.62 583.98">
  <defs>
    <style>
      .cls-1 {
        fill: #ff3a33;
      }

      .cls-1, .cls-2 {
        stroke-width: 0px;
      }

      .cls-2 {
        fill: #fff;
      }
    </style>
  </defs>
  <g id="Capa_1-2" data-name="Capa 1">
    <g>
      <path class="cls-2" d="M754.69,487.56c-.92.34-1.84.67-2.75,1.01-2.71-2.54-4.99-5.73-6.81-9.34-2.23-4.42-3.94-10.8-4.5-15.74-1.42-12.46.34-24.89,5.08-36.52,2.27-5.58,5.82-11.46,9.85-15.77,3.98-4.25-1.26-10.4-5.62-8.34-.04-1.09-.46-2.21-1.45-3.21-5.05-5.1-9.36-12.46-11.94-19.09-3.11-7.99-5.12-16.95-5.88-24.83-.44-4.55-.59-9.14-.43-13.71.16-4.65.55-8.43,1.31-12.53.78-4.2,1.87-8.34,3.35-12.35.75-2.04.93-2.46,1.89-4.42.87-1.78,1.83-3.51,2.9-5.17,1.46-2.28,1.82-2.77,3.53-4.68,1.31-1.45,2.72-2.8,4.24-4.03.2-.15.56-.43.6-.46.51-.35,1.01-.71,1.53-1.04.78-.5,1.59-.97,2.41-1.4.42-.22.84-.42,1.25-.63.23-.11.47-.22.71-.32.07-.03.14-.06.25-.1,1.05-.4,2.11-.75,3.19-1.06,3.07-.88,3.99-3.68,3.4-6.1,1.99-3.24-.73-8.87-5.68-7.8-1.34.29-2.68.56-4.02.85-3.06-2.91-5.63-6.4-7.76-10.38-1.72-3.22-2.69-5.65-3.82-9.22-1.12-3.55-1.96-7.18-2.57-10.85-2.25-13.53-1.33-28.56,2.2-41.93.88-3.32,1.93-6.62,3.25-9.79.09-.18.7-1.55.83-1.82.31-.65.64-1.29.98-1.92.69-1.29,1.45-2.54,2.28-3.74,1.09-1.59.84-3.71-.17-5.3,1.82-1.82,2.1-5.41,0-7.19-9.09-7.71-14.39-17.76-16.78-28.69.34-.83.18-1.82-.47-2.36-3.01-16.81.59-35.41,7.82-50.67,3.73-7.86,8.44-15.24,14.27-21.71,1.3-1.3,1.9-3.39,1.43-5.09,0-.02-.01-.03-.02-.04,0-.02.01-.03.02-.04.69-2.5-.84-5.72-3.55-6.26-21.93-4.34-43.88-8.53-65.85-12.65-26.76-5.02-53.54-9.91-80.35-14.7-28.16-5.03-56.35-9.94-84.56-14.68-26.13-4.39-52.29-8.64-78.49-12.58-20.9-3.15-41.84-6.16-62.84-8.52-.61-.07-1.21-.13-1.82-.2-.67-.34-1.41-.53-2.18-.48-.44.03-.87.07-1.3.1-.3-.03-.61-.07-.91-.1-.68-.07-1.34.05-1.94.31-32.7,2.38-65.36,5.26-97.96,8.76-30.31,3.26-60.57,7.05-90.75,11.35-15.7,2.24-31.38,4.62-47.04,7.12-1.54.25-2.68,1.46-3.26,2.9-9.92,1.55-19.36,5.03-27.45,11.12-8.03,6.04-14.54,13.9-19.08,22.87-9.02,17.83-11.2,39.38-5.56,58.59,2.4,8.17,6.28,15.92,11.62,22.53-2.3-.27-4.6-.54-6.91-.78-5.14-.53-10.1,0-15.1,1.6-15.53,4.98-23.45,18.9-28.23,33.53-7.55,23.09-8.52,54.03,14.35,68.9,3.84,2.5,8.09,4.3,12.5,5.56-16.01,10.89-26.4,29.36-30.67,47.98-5.54,24.16-2.03,51.02,12.24,71.64,6.79,9.81,15.7,17.99,26,23.93-9.73,3.49-18.18,9.85-23.51,19.38-7.45,13.3-7.87,29.9-2.84,44.1,3.09,8.71,8,16.62,14.51,23.19.36.36.74.63,1.12.86.38,1.54,1.45,2.91,3.37,3.53,51.16,16.55,103.07,30.73,155.33,43.33,53.73,12.96,107.84,24.26,162.12,34.63,27.2,5.2,54.45,10.13,81.72,14.93.33.18.67.23,1.01.18,3.21.56,6.41,1.15,9.62,1.71,2.2.39,4.44-.36,5.61-2.17,1.03,1.71,2.95,2.84,5.45,2.17,36-9.64,71.81-19.99,107.43-30.98,35.46-10.94,70.72-22.52,105.76-34.75,16.77-5.85,33.47-11.9,50.12-18.07,2.21.97,5.09-.15,6.28-2.18.03-.05.04-.11.07-.16.25-.09.5-.18.75-.28,2.57-.96,4.33-3.44,3.55-6.26-.68-2.46-3.67-4.51-6.26-3.55ZM738.23,185.39c-.08-.19-.15-.39-.25-.57.14.12.27.25.42.38-.06.06-.11.13-.17.19ZM735.88,182.84c-.49-.24-1.03-.4-1.59-.48.05,0,.09,0,.14-.01.29-.02.53-.11.76-.22.23.24.46.48.69.71ZM79.59,258.34c.43-.14.56-.12,0,0h0Z"/>
      <g>
        <path class="cls-1" d="M66.11,489c51.16,16.55,103.07,30.73,155.33,43.33,53.73,12.96,107.84,24.26,162.12,34.63,30.73,5.87,61.52,11.44,92.35,16.82,2.7.47,5.48-.72,6.25-3.55.67-2.45-.83-5.78-3.55-6.26-54.88-9.58-109.66-19.75-164.18-31.18-53.54-11.22-106.85-23.65-159.63-38.05-28.85-7.87-57.54-16.35-85.99-25.55-6.24-2.02-8.91,7.8-2.7,9.81h0Z"/>
        <path class="cls-1" d="M68.81,477.42c-9.42-9.52-14.86-22.42-14.88-35.43,0-3.59.22-5.78.85-8.74.31-1.46.69-2.91,1.14-4.34.25-.79.53-1.56.82-2.34.11-.31.24-.61.36-.92-.36.86.2-.42.28-.59.68-1.4,1.4-2.78,2.22-4.1.39-.63.79-1.24,1.22-1.84.19-.27.38-.54.57-.8.5-.67-.14.11.58-.71.98-1.13,1.98-2.22,3.07-3.25,1.39-1.3,2.2-1.93,3.31-2.7,6.67-4.6,14.18-6.51,22.31-6.78,6.53-.22,6.56-10.39,0-10.17-16.53.55-32.39,7.75-40.71,22.59-7.45,13.3-7.87,29.9-2.84,44.1,3.09,8.71,8,16.62,14.51,23.19,4.61,4.66,11.8-2.53,7.19-7.19h0Z"/>
        <path class="cls-1" d="M506.78,326.38c-1.97-.91-4.08-1.35-6.18-1.84-3.87-.9-7.76-1.72-11.64-2.54-13.22-2.78-26.48-5.41-39.74-8.02-18.74-3.69-37.49-7.31-56.25-10.89-22.12-4.23-44.25-8.4-66.39-12.54-23.13-4.32-46.27-8.6-69.42-12.82-22.01-4.02-44.02-7.98-66.05-11.88-18.74-3.31-37.49-6.57-56.26-9.69-13.15-2.19-26.31-4.35-39.52-6.17-4.18-.57-8.36-1.16-12.56-1.53-2.68-.24-5.06-.37-7.58.73-21.34,9.29-34.93,31.14-39.98,53.17-5.54,24.16-2.03,51.02,12.23,71.64,7.69,11.11,18.09,20.14,30.19,26.19,2.86,1.43,5.11,2.36,8.08,3,8.44,1.81,16.89,3.61,25.33,5.42,15.36,3.28,30.72,6.57,46.09,9.85,19.9,4.25,39.79,8.51,59.69,12.76,22.21,4.75,44.42,9.5,66.63,14.24,22.34,4.78,44.68,9.55,67.02,14.33,20.03,4.28,40.07,8.57,60.1,12.85,15.54,3.32,31.09,6.65,46.64,9.97,8.81,1.88,17.62,3.77,26.43,5.65,1.14.24,2.28.49,3.42.73,3.56.76,7.55-2.36,6.25-6.26-6.17-18.47-8.74-38.03-8.46-57.47.29-19.63,3.47-39.85,11.5-57.89,4.2-9.43,9.66-18.28,16.82-25.75,4.53-4.73-2.65-11.93-7.19-7.19-14.09,14.72-22.53,34-26.99,53.69-4.73,20.87-5.51,42.72-2.83,63.93,1.43,11.33,3.72,22.53,7.34,33.37,2.08-2.08,4.17-4.17,6.25-6.26-4.62-.99-9.23-1.97-13.85-2.96-12.38-2.65-24.75-5.29-37.12-7.94-17.92-3.83-35.83-7.66-53.75-11.49-21.24-4.54-42.49-9.08-63.73-13.62-22.27-4.76-44.55-9.52-66.82-14.29-21.33-4.56-42.67-9.12-64-13.68-17.88-3.82-35.75-7.64-53.63-11.46-12.42-2.66-24.85-5.31-37.27-7.97-4.68-1-9.38-1.96-14.05-3,1.47.33-.62-.31-1.09-.54-.75-.35-1.5-.72-2.24-1.1-1.63-.83-3.24-1.72-4.81-2.66-2.66-1.59-5.57-3.57-7.64-5.24-4.6-3.7-9.34-8.6-12.43-12.82-7.24-9.9-11.36-20.3-13.41-32.44-.42-2.52-.68-4.67-.88-7.81-.19-2.97-.23-5.95-.13-8.93.22-6.28.79-10.61,2.22-16.68.67-2.83,1.46-5.62,2.4-8.37,1.02-3,1.76-4.84,2.86-7.22,1.19-2.55,2.5-5.04,3.95-7.45.67-1.12,1.37-2.22,2.1-3.31.36-.54.73-1.07,1.11-1.6.21-.3,1.4-1.89.94-1.3,1.65-2.15,3.46-4.18,5.37-6.1.89-.89,1.81-1.76,2.75-2.59.47-.42.95-.82,1.43-1.23.24-.2.49-.4.73-.59.71-.58-.18.12.26-.21,2.11-1.6,4.33-3.06,6.65-4.34,1.09-.6,2.2-1.17,3.34-1.69.85-.39,1.42-.38.33-.17.04,0,.08-.03.13-.04.37-.06-1.89.04-.52.1.4.02.8,0,1.2.02,1.25.05,2.5.16,3.74.29,1.79.18,3.57.39,5.36.62.5.06.99.13,1.49.19.26.03.51.07.77.1,1.23.16-.52-.07-.15-.02,1.21.17,2.43.33,3.64.51,5.95.84,11.88,1.76,17.81,2.69,16.46,2.6,32.88,5.4,49.3,8.23,20.68,3.58,41.34,7.25,62,10.97,22.75,4.1,45.49,8.26,68.22,12.46,22.59,4.18,45.17,8.4,67.74,12.66,20.51,3.88,41.01,7.79,61.5,11.76,15.99,3.1,31.97,6.22,47.93,9.44,9.51,1.92,19.05,3.8,28.5,6.01,1.07.25,2.14.5,3.2.79.9.24,2.48.95.43,0,2.49,1.15,5.48.7,6.96-1.82,1.29-2.2.69-5.8-1.82-6.96h0Z"/>
        <path class="cls-1" d="M77.11,246.38c-7.39-1.05-13.71-2.95-19.65-7.05-.92-.63-1.57-1.16-2.82-2.34-1.1-1.04-2.13-2.16-3.08-3.33-.57-.7.66.94-.21-.28-.18-.25-.36-.51-.54-.77-.35-.51-.69-1.04-1.02-1.57-.81-1.32-1.52-2.7-2.17-4.12-.07-.15-.38-.9-.04-.07-.12-.29-.24-.58-.34-.87-.27-.73-.53-1.46-.77-2.21-.43-1.35-.79-2.72-1.09-4.1-.17-.77-.32-1.55-.45-2.33-.05-.32-.28-1.97-.16-1.02-.19-1.52-.31-3.04-.38-4.57-.14-3.01-.06-6.03.19-9.03.06-.73.13-1.46.21-2.19.03-.31.28-2.23.15-1.32.21-1.53.47-3.05.76-4.56,1.06-5.51,2.6-10.93,4.58-16.18.25-.66.5-1.31.77-1.97.12-.3.75-1.77.27-.68.49-1.13.99-2.25,1.53-3.36,1.84-3.79,4.06-7.31,7.09-10.26,5.37-5.22,13.08-8.06,20.47-7.43,3.42.29,6.83.73,10.24,1.16,2.61.32,5.22.66,7.83,1.01,1.51.2,3.02.4,4.53.6l1.16.16c1.26.17-.85-.11-.03,0,.91.12,1.81.24,2.72.37,17.09,2.32,34.17,4.75,51.24,7.21,22.31,3.21,44.62,6.48,66.92,9.78,24.99,3.7,49.98,7.43,74.96,11.2,24.86,3.75,49.72,7.53,74.57,11.35,22.25,3.42,44.5,6.87,66.74,10.37,16.85,2.66,33.7,5.34,50.53,8.14,8.9,1.48,17.87,2.8,26.68,4.75.67.15,1.35.28,2,.51,2.58.93,5.57-1.05,6.25-3.55.77-2.82-.96-5.32-3.55-6.26-2-.72-4.23-.98-6.3-1.37-4.67-.88-9.34-1.69-14.02-2.48-15.52-2.64-31.08-5.13-46.63-7.6-21.73-3.45-43.47-6.84-65.22-10.19-24.97-3.85-49.94-7.66-74.92-11.44-25.5-3.86-51-7.68-76.51-11.47-23.26-3.45-46.52-6.87-69.79-10.24-18.25-2.64-36.5-5.26-54.77-7.76-10.88-1.49-21.76-3.07-32.68-4.2-5.14-.53-10.1,0-15.1,1.6-15.53,4.98-23.45,18.9-28.23,33.53-7.55,23.09-8.52,54.03,14.34,68.9,6.28,4.08,13.66,6.31,21.02,7.36,2.72.39,5.46-.67,6.25-3.55.66-2.38-.81-5.87-3.55-6.26h0Z"/>
        <path class="cls-1" d="M101.35,143.74c-5.88-5.63-10.29-12.83-12.86-20.21-1.45-4.17-2.48-8.47-3.12-12.83-.09-.6-.01-.06,0,.05-.03-.26-.07-.52-.09-.78-.07-.61-.14-1.22-.19-1.83-.1-1.14-.18-2.28-.24-3.42-.1-2.2-.11-4.41-.03-6.61.19-4.88.58-7.91,1.62-12.59.5-2.24,1.1-4.46,1.8-6.66.32-1.01.67-2.01,1.03-3,.18-.5.37-.99.56-1.48.08-.21.64-1.56.39-.98,3.63-8.48,8.25-15.2,15-21.17,7.08-6.26,16.86-10.64,26.36-11.89,2.72-.36,5.08-2.08,5.08-5.08,0-2.47-2.34-5.44-5.08-5.08-10.59,1.39-20.69,4.95-29.28,11.41-8.03,6.04-14.54,13.9-19.08,22.87-9.02,17.83-11.2,39.38-5.56,58.59,3.07,10.48,8.57,20.3,16.5,27.89,4.73,4.52,11.93-2.66,7.19-7.19h0Z"/>
        <path class="cls-1" d="M523.03,216.62c-5.16,7.09-11.43,13.02-17.38,19.41-5.47,5.87-8.91,12.8-11.76,20.25-6.01,15.74-5.54,32.43-.21,48.29,3.67,10.94,8.96,21.29,14.59,31.33,3.2,5.71,11.99.59,8.78-5.13-8.26-14.73-16.75-30.96-17.46-48.19-.31-7.43.91-14.52,3.37-21.55,1.31-3.76,2.98-7.38,4.84-10.9,1.55-2.93,2.73-4.39,4.85-6.69,6.6-7.14,13.42-13.78,19.17-21.68,1.61-2.22.38-5.67-1.82-6.96-2.57-1.5-5.34-.4-6.96,1.83h0Z"/>
        <path class="cls-1" d="M484.79,487.66c-9.6,13.15-17.77,28.13-20.55,44.34-2.8,16.3.15,32.44,8.64,46.66,3.35,5.61,12.15.51,8.78-5.13-7.32-12.28-10.07-26.36-7.31-40.45,2.9-14.83,10.4-28.19,19.23-40.28,1.62-2.22.38-5.67-1.82-6.96-2.57-1.5-5.33-.4-6.96,1.83h0Z"/>
        <path class="cls-1" d="M486.98,583.78c36-9.64,71.81-19.99,107.43-30.98,35.46-10.94,70.72-22.52,105.76-34.75,19.15-6.69,38.23-13.58,57.23-20.69,2.57-.96,4.32-3.44,3.55-6.26-.68-2.47-3.67-4.52-6.25-3.55-33.99,12.72-68.24,24.74-102.69,36.15-35.48,11.76-71.18,22.86-107.07,33.31-20.15,5.87-40.37,11.52-60.65,16.95-6.32,1.69-3.64,11.5,2.7,9.81h0Z"/>
        <path class="cls-1" d="M492.55,489c34.45-9.2,68.5-19.9,102.48-30.66,35.31-11.19,70.53-22.69,105.88-33.77,15.05-4.72,30.13-9.4,45.33-13.62,6.3-1.75,3.62-11.57-2.7-9.81-29.96,8.34-59.54,18.06-89.14,27.55-36.49,11.7-72.95,23.49-109.61,34.64-18.24,5.55-36.52,10.94-54.94,15.86-6.32,1.69-3.64,11.5,2.7,9.81h0Z"/>
        <path class="cls-1" d="M509.28,344.03c34.1-9.94,69.04-17.21,103.75-24.63,36.92-7.9,73.93-15.36,110.94-22.77,11.28-2.26,22.59-4.43,33.84-6.87,6.39-1.39,3.69-11.19-2.7-9.81-25.84,5.61-51.85,10.45-77.77,15.71-39.48,8.02-78.95,16.18-118.21,25.26-17.6,4.07-35.21,8.24-52.56,13.3-6.27,1.83-3.6,11.65,2.7,9.81h0Z"/>
        <path class="cls-1" d="M534.32,223.85c52.15-8.24,104.29-16.47,156.44-24.71,14.71-2.32,29.42-4.65,44.12-6.97,2.72-.43,4.22-3.82,3.55-6.26-.79-2.89-3.53-3.98-6.25-3.55-52.15,8.24-104.29,16.47-156.44,24.71-14.71,2.32-29.42,4.65-44.12,6.97-2.72.43-4.22,3.82-3.55,6.26.79,2.89,3.53,3.98,6.25,3.55h0Z"/>
        <path class="cls-1" d="M523.22,107.08c28.85-5.45,58.01-9.2,87.15-12.72,30.62-3.7,61.28-7.02,91.86-11.02,15.64-2.04,31.26-4.23,46.79-6.93,2.71-.47,4.23-3.79,3.55-6.26-.79-2.86-3.54-4.02-6.25-3.55-28.12,4.88-56.49,8.23-84.83,11.56-31.04,3.65-62.11,7.12-93.07,11.42-16.02,2.22-32.02,4.68-47.92,7.69-2.7.51-4.24,3.76-3.55,6.26.78,2.83,3.55,4.06,6.25,3.55h0Z"/>
        <path class="cls-1" d="M135.72,37.38c27.94-4.47,55.94-8.54,84.01-12.11,31.3-3.99,62.67-7.4,94.08-10.27,19.69-1.8,39.4-3.39,59.12-4.81,2.74-.2,5.08-2.2,5.08-5.08,0-2.6-2.33-5.28-5.08-5.08-34.09,2.44-68.14,5.43-102.12,9.08-30.31,3.26-60.57,7.05-90.75,11.35-15.7,2.24-31.38,4.62-47.04,7.12-2.71.43-4.22,3.82-3.55,6.26.79,2.89,3.53,3.99,6.25,3.55h0Z"/>
        <path class="cls-1" d="M370.72,10.19c8.97.93,17.91,2.03,26.85,3.2,4.75.62,9.41,1.26,14.81,2.02,5.64.79,11.27,1.61,16.9,2.44,25.66,3.79,51.26,7.91,76.85,12.17,28.04,4.66,56.04,9.51,84.03,14.48,27.04,4.8,54.06,9.71,81.06,14.74,22.74,4.24,45.47,8.55,68.18,13.01,2.31.45,4.62.91,6.93,1.37,2.69.53,5.49-.77,6.25-3.55.69-2.5-.84-5.72-3.55-6.26-21.93-4.34-43.88-8.53-65.85-12.65-26.76-5.02-53.54-9.91-80.35-14.7-28.16-5.03-56.35-9.94-84.56-14.68-26.13-4.39-52.29-8.64-78.49-12.58-20.9-3.15-41.84-6.16-62.84-8.52-2.07-.23-4.15-.46-6.22-.67-2.74-.28-5.08,2.54-5.08,5.08,0,2.99,2.34,4.8,5.08,5.09h0Z"/>
        <path class="cls-1" d="M513.49,103.53c-10.42,13.13-18.17,28.44-20.65,45.14-2.41,16.23-.19,32.44,6.39,47.46,3.91,8.93,9.36,17.03,15.71,24.4,1.79,2.08,5.35,1.84,7.19,0,2.06-2.06,1.8-5.1,0-7.19-9.71-11.28-16.58-24.78-19.16-39.49-2.42-13.82-.45-28.09,4.72-41.06,3.15-7.91,7.71-15.42,13-22.07,1.71-2.15,2.1-5.09,0-7.19-1.77-1.77-5.47-2.16-7.19,0h0Z"/>
        <path class="cls-1" d="M744.08,67.91c-11.64,12.85-19.78,28.88-23.67,45.76-3.74,16.26-3.83,34.07,2.62,49.68,3.58,8.66,8.93,16.43,16.1,22.52,2.09,1.78,5.14,2.05,7.19,0,1.82-1.82,2.1-5.41,0-7.19-23.57-19.99-21.76-55.72-9.44-81.72,3.75-7.92,8.5-15.35,14.39-21.85,4.39-4.84-2.79-12.06-7.19-7.19h0Z"/>
        <path class="cls-1" d="M737.71,186.03c-7.9,11.47-10.69,26.67-11.74,40.28-1.24,16.1.58,33.16,7.81,47.77,3.86,7.79,9.59,14.53,16.9,19.26,5.51,3.56,10.61-5.23,5.13-8.78-5.26-3.4-9.35-8.25-12.49-14.13-1.72-3.22-2.69-5.65-3.82-9.22-1.12-3.55-1.96-7.18-2.57-10.85-2.25-13.53-1.33-28.56,2.2-41.93.89-3.37,1.96-6.72,3.31-9.94-.34.81.61-1.33.78-1.68.31-.65.64-1.29.98-1.92.69-1.29,1.45-2.54,2.28-3.74,1.56-2.26.42-5.64-1.82-6.96-2.52-1.47-5.4-.44-6.96,1.82h0Z"/>
        <path class="cls-1" d="M754.69,284.05c-17.77,5.09-28.04,21.62-32.11,38.76-4.45,18.76-3.22,39.47,3.13,57.65,3.39,9.7,8.31,19.03,15.59,26.39,4.61,4.66,11.8-2.53,7.19-7.19-5.05-5.1-9.36-12.46-11.94-19.09-3.11-7.99-5.12-16.95-5.88-24.83-.44-4.55-.59-9.14-.43-13.71.16-4.65.55-8.43,1.31-12.53.78-4.2,1.87-8.34,3.35-12.35.75-2.04.93-2.46,1.89-4.42.87-1.78,1.83-3.51,2.9-5.17,1.46-2.28,1.82-2.77,3.53-4.68,1.35-1.5,2.82-2.9,4.4-4.16-.83.67.37-.27.45-.32.51-.35,1.01-.71,1.53-1.04.78-.5,1.59-.97,2.41-1.4.41-.22.83-.42,1.25-.63.28-.13.57-.26.85-.39-.49.2-.46.19.1-.03,1.05-.4,2.11-.75,3.19-1.06,6.28-1.8,3.61-11.61-2.71-9.8h0Z"/>
        <path class="cls-1" d="M748.37,404.01c-9.38,10.02-14.86,23.44-17.09,36.85-2.33,14.06-1.64,28.86,4.33,41.97,3.09,6.78,7.88,12.55,13.99,16.79,2.26,1.57,5.65.42,6.96-1.82,1.48-2.53.44-5.39-1.82-6.96-3.97-2.76-7.2-6.83-9.61-11.61-2.23-4.42-3.94-10.8-4.5-15.74-1.42-12.46.34-24.89,5.08-36.52,2.27-5.58,5.82-11.46,9.85-15.77,4.47-4.78-2.71-11.98-7.19-7.19h0Z"/>
        <path class="cls-1" d="M119.3,45.75c51.46,7.14,103.01,13.69,154.52,20.49,54.26,7.17,108.5,14.53,162.57,23.02,27.44,4.31,54.83,8.91,82.11,14.15,3.84.74,5.48-5.14,1.62-5.88-50.41-9.68-101.2-17.34-152.01-24.55-54.35-7.71-108.8-14.75-163.23-21.88-28-3.67-55.99-7.35-83.96-11.23-1.65-.23-3.26.4-3.75,2.13-.41,1.42.5,3.53,2.13,3.75h0Z"/>
        <path class="cls-1" d="M433.35,170.93l-125.24-17.17c-13.35-1.83-22.69-14.13-20.86-27.48h0c1.83-13.35,14.13-22.69,27.48-20.86l125.24,17.17c13.35,1.83,22.69,14.13,20.86,27.48h0c-1.83,13.35-14.13,22.69-27.48,20.86Z"/>
        <path class="cls-1" d="M233.19,251.76l-124.93-19.28c-13.32-2.06-22.44-14.52-20.39-27.83h0c2.05-13.32,14.51-22.44,27.83-20.39l124.93,19.28c13.32,2.06,22.44,14.52,20.39,27.83h0c-2.05,13.32-14.52,22.44-27.83,20.39Z"/>
        <path class="cls-1" d="M508.76,124.61c8.76-2.57,18.05-3.81,27.03-5.34,16-2.74,32.05-5.24,48.1-7.67,36.69-5.56,73.44-10.8,110.24-15.52,13.41-1.72,26.83-3.52,40.3-4.66,2.59-.22,2.61-4.29,0-4.07-29.14,2.45-58.2,6.92-87.15,10.96-35.91,5.01-71.81,10.2-107.57,16.19-10.63,1.78-21.66,3.15-32.03,6.19-2.51.74-1.44,4.66,1.08,3.92h0Z"/>
        <path class="cls-1" d="M506.54,135.7c8.76-2.57,18.05-3.81,27.03-5.34,16-2.74,32.05-5.24,48.1-7.67,36.69-5.56,73.44-10.8,110.24-15.52,13.41-1.72,26.83-3.52,40.3-4.66,2.59-.22,2.61-4.29,0-4.07-29.14,2.45-58.2,6.92-87.15,10.96-35.91,5.01-71.81,10.2-107.57,16.19-10.63,1.78-21.66,3.15-32.03,6.19-2.51.74-1.44,4.66,1.08,3.92h0Z"/>
        <path class="cls-1" d="M504.32,149.01c8.51-2.5,17.5-3.74,26.22-5.26,15.58-2.71,31.21-5.18,46.85-7.58,35.59-5.47,71.24-10.61,106.95-15.24,13.15-1.7,26.31-3.48,39.52-4.59,2.59-.22,2.61-4.29,0-4.07-28.46,2.39-56.83,6.79-85.09,10.78-34.81,4.91-69.62,10.01-104.28,15.91-10.38,1.77-21.13,3.15-31.25,6.12-2.51.73-1.44,4.66,1.08,3.92h0Z"/>
        <path class="cls-1" d="M499.89,162.31c8.76-2.57,18.05-3.81,27.03-5.34,16-2.74,32.05-5.24,48.1-7.67,36.69-5.56,73.44-10.8,110.24-15.52,13.41-1.72,26.83-3.52,40.3-4.66,2.59-.22,2.61-4.29,0-4.07-29.14,2.45-58.2,6.92-87.15,10.96-35.91,5.01-71.81,10.2-107.57,16.19-10.63,1.78-21.66,3.15-32.03,6.19-2.51.74-1.44,4.66,1.08,3.92h0Z"/>
        <path class="cls-1" d="M499.89,173.4c8.76-2.57,18.05-3.81,27.03-5.34,16-2.74,32.05-5.24,48.1-7.67,36.69-5.56,73.44-10.8,110.24-15.52,13.41-1.72,26.83-3.52,40.3-4.66,2.59-.22,2.61-4.29,0-4.07-29.14,2.45-58.2,6.92-87.15,10.96-35.91,5.01-71.81,10.2-107.57,16.19-10.63,1.78-21.66,3.15-32.03,6.19-2.51.74-1.44,4.66,1.08,3.92h0Z"/>
        <path class="cls-1" d="M502.11,184.49c8.76-2.57,18.05-3.81,27.03-5.34,16-2.74,32.05-5.24,48.1-7.67,36.69-5.56,73.44-10.8,110.24-15.52,13.41-1.72,26.83-3.52,40.3-4.66,2.59-.22,2.61-4.29,0-4.07-29.14,2.45-58.2,6.92-87.15,10.96-35.91,5.01-71.81,10.2-107.57,16.19-10.63,1.78-21.66,3.15-32.03,6.19-2.51.74-1.44,4.66,1.08,3.92h0Z"/>
        <path class="cls-1" d="M502.11,193.36c8.76-2.57,18.05-3.81,27.03-5.34,16-2.74,32.05-5.24,48.1-7.67,36.69-5.56,73.44-10.8,110.24-15.52,13.41-1.72,26.83-3.52,40.3-4.66,2.59-.22,2.61-4.29,0-4.07-29.14,2.45-58.2,6.92-87.15,10.96-35.91,5.01-71.81,10.2-107.57,16.19-10.63,1.78-21.66,3.15-32.03,6.19-2.51.74-1.44,4.66,1.08,3.92h0Z"/>
        <path class="cls-1" d="M506.54,204.45c8.76-2.57,18.05-3.81,27.03-5.34,16-2.74,32.05-5.24,48.1-7.67,36.69-5.56,73.44-10.8,110.24-15.52,13.41-1.72,26.83-3.52,40.3-4.66,2.59-.22,2.61-4.29,0-4.07-29.14,2.45-58.2,6.92-87.15,10.96-35.91,5.01-71.81,10.2-107.57,16.19-10.63,1.78-21.66,3.15-32.03,6.19-2.51.74-1.44,4.66,1.08,3.92h0Z"/>
        <path class="cls-1" d="M508.76,215.54c8.76-2.57,18.05-3.81,27.03-5.34,16-2.74,32.05-5.24,48.1-7.67,36.69-5.56,73.44-10.8,110.24-15.52,13.41-1.72,26.83-3.52,40.3-4.66,2.59-.22,2.61-4.29,0-4.07-29.14,2.45-58.2,6.92-87.15,10.96-35.91,5.01-71.81,10.2-107.57,16.19-10.63,1.78-21.66,3.15-32.03,6.19-2.51.74-1.44,4.66,1.08,3.92h0Z"/>
        <path class="cls-1" d="M509.92,242.85c8.83-2.6,18.11-3.98,27.14-5.64,16.09-2.96,32.23-5.69,48.37-8.37,36.9-6.11,73.85-11.91,110.89-17.1,13.4-1.88,26.84-3.87,40.33-5,2.59-.22,2.61-4.29,0-4.07-11.65.98-23.25,2.65-34.83,4.24-17.59,2.42-35.15,5.03-52.71,7.71-36.11,5.52-72.21,11.27-108.16,17.77-10.67,1.93-21.69,3.48-32.12,6.54-2.51.74-1.44,4.66,1.08,3.92h0Z"/>
        <path class="cls-1" d="M506.4,259.26c8.72-2.57,17.81-4.1,26.71-5.87,15.77-3.13,31.57-6.06,47.39-8.93,36.37-6.6,72.8-12.9,109.34-18.49,13.24-2.03,26.54-4.19,39.9-5.32,2.59-.22,2.61-4.29,0-4.07-11.51.97-22.97,2.76-34.38,4.46-17.27,2.58-34.5,5.39-51.73,8.28-35.61,5.97-71.18,12.23-106.62,19.16-10.55,2.06-21.36,3.81-31.69,6.85-2.51.74-1.44,4.66,1.08,3.92h0Z"/>
        <path class="cls-1" d="M501.71,276.84c8.82-2.6,17.94-4.38,26.92-6.34,16.13-3.53,32.31-6.89,48.49-10.18,36.78-7.48,73.63-14.72,110.62-21.07,13.26-2.28,26.61-4.76,40.03-5.89,2.59-.22,2.61-4.29,0-4.07-11.59.98-23.13,3.01-34.59,4.93-17.46,2.92-34.88,6.13-52.28,9.42-19.33,3.66-38.64,7.45-57.92,11.35-16.79,3.39-33.56,6.85-50.3,10.47-10.12,2.19-20.31,4.27-30.31,6.97-.59.16-1.17.32-1.75.49-2.51.74-1.44,4.67,1.08,3.92h0Z"/>
        <path class="cls-1" d="M500.54,287.39c8.89-2.62,18.16-4.22,27.23-6.06,16.3-3.31,32.63-6.41,48.98-9.46,19.43-3.62,38.87-7.13,58.34-10.54,18.09-3.16,36.2-6.24,54.34-9.1,12.53-1.98,25.08-4.01,37.71-5.3.95-.1,1.91-.19,2.86-.27,2.59-.22,2.61-4.29,0-4.07-11.68.99-23.32,2.87-34.9,4.66-17.81,2.74-35.57,5.74-53.33,8.81-19.55,3.38-39.08,6.88-58.58,10.49-17.07,3.16-34.12,6.38-51.14,9.78-10.3,2.06-20.69,3.98-30.85,6.66-.58.15-1.16.31-1.73.48-2.51.74-1.44,4.66,1.08,3.92h0Z"/>
        <path class="cls-1" d="M504.06,300.29c8.84-2.6,18.04-4.22,27.06-6.06,16.03-3.27,32.1-6.35,48.18-9.37,36.74-6.89,73.55-13.51,110.47-19.36,13.34-2.12,26.75-4.39,40.23-5.53,2.59-.22,2.61-4.29,0-4.07-11.64.98-23.22,2.86-34.75,4.65-17.54,2.71-35.03,5.68-52.51,8.72-35.98,6.26-71.93,12.83-107.73,20.03-10.66,2.15-21.57,3.99-32.02,7.06-2.51.74-1.44,4.67,1.08,3.92h0Z"/>
        <path class="cls-1" d="M506.4,313.18c8.85-2.61,18.03-4.32,27.05-6.24,16.02-3.41,32.08-6.63,48.15-9.8,36.71-7.23,73.49-14.19,110.4-20.33,13.33-2.22,26.74-4.62,40.21-5.76,2.59-.22,2.61-4.29,0-4.07-11.64.98-23.22,2.96-34.74,4.83-17.53,2.84-35.02,5.95-52.48,9.15-35.97,6.58-71.88,13.49-107.67,21-10.67,2.24-21.54,4.2-32,7.29-2.51.74-1.44,4.66,1.08,3.92h0Z"/>
        <path class="cls-1" d="M509.92,323.73c8.78-2.59,17.83-4.39,26.76-6.37,16-3.55,32.05-6.93,48.1-10.25,36.49-7.54,73.05-14.84,109.77-21.24,13.21-2.3,26.51-4.81,39.89-5.94,2.59-.22,2.61-4.29,0-4.07-11.69.99-23.32,3.07-34.88,5.04-17.37,2.95-34.7,6.2-52,9.53-35.75,6.88-71.45,14.12-107.01,21.92-10.57,2.32-21.31,4.4-31.7,7.46-2.51.74-1.44,4.67,1.08,3.92h0Z"/>
        <path class="cls-1" d="M499.37,358.89c9.17-2.71,18.52-4.84,27.8-7.11,16.85-4.13,33.73-8.14,50.62-12.12,19.98-4.7,39.98-9.34,59.99-13.91,18.62-4.25,37.25-8.44,55.92-12.48,12.77-2.76,25.54-5.56,38.41-7.82.95-.17,1.9-.33,2.85-.48,2.58-.42,1.48-4.34-1.08-3.92-11.85,1.92-23.6,4.52-35.34,7.03-18.2,3.89-36.35,7.96-54.5,12.08-20.09,4.56-40.16,9.2-60.22,13.91-17.51,4.11-35.01,8.26-52.49,12.51-10.46,2.54-20.95,5.01-31.32,7.9-.58.16-1.16.32-1.73.49-2.5.74-1.44,4.67,1.08,3.92h0Z"/>
        <path class="cls-1" d="M492.34,371.78c9.17-2.71,18.52-4.84,27.8-7.11,16.85-4.13,33.73-8.14,50.62-12.12,19.98-4.7,39.98-9.34,59.99-13.91,18.62-4.25,37.25-8.44,55.92-12.48,12.77-2.76,25.54-5.56,38.41-7.82.95-.17,1.9-.33,2.85-.48,2.58-.42,1.48-4.34-1.08-3.92-11.85,1.92-23.6,4.52-35.34,7.03-18.2,3.89-36.35,7.96-54.5,12.08-20.09,4.56-40.16,9.2-60.22,13.91-17.51,4.11-35.01,8.26-52.49,12.51-10.46,2.54-20.95,5.01-31.32,7.9-.58.16-1.16.32-1.73.49-2.5.74-1.44,4.67,1.08,3.92h0Z"/>
        <path class="cls-1" d="M485.3,398.74c9.17-2.71,18.52-4.84,27.8-7.11,16.85-4.13,33.73-8.14,50.62-12.12,19.98-4.7,39.98-9.34,59.99-13.91,18.62-4.25,37.25-8.44,55.92-12.48,12.77-2.76,25.54-5.56,38.41-7.82.95-.17,1.9-.33,2.85-.48,2.58-.42,1.48-4.34-1.08-3.92-11.85,1.92-23.6,4.52-35.34,7.03-18.2,3.89-36.35,7.96-54.5,12.08-20.09,4.56-40.16,9.2-60.22,13.91-17.51,4.11-35.01,8.26-52.49,12.51-10.46,2.54-20.95,5.01-31.32,7.9-.58.16-1.16.32-1.73.49-2.5.74-1.44,4.67,1.08,3.92h0Z"/>
        <path class="cls-1" d="M481.79,411.64c9.17-2.71,18.52-4.84,27.8-7.11,16.85-4.13,33.73-8.14,50.62-12.12,19.98-4.7,39.98-9.34,59.99-13.91,18.62-4.25,37.25-8.44,55.92-12.48,12.77-2.76,25.54-5.56,38.41-7.82.95-.17,1.9-.33,2.85-.48,2.58-.42,1.48-4.34-1.08-3.92-11.85,1.92-23.6,4.52-35.34,7.03-18.2,3.89-36.35,7.96-54.5,12.08-20.09,4.56-40.16,9.2-60.22,13.91-17.51,4.11-35.01,8.26-52.49,12.51-10.46,2.54-20.95,5.01-31.32,7.9-.58.16-1.15.32-1.73.49-2.5.74-1.44,4.67,1.08,3.92h0Z"/>
        <path class="cls-1" d="M484.13,422.19c9.17-2.71,18.52-4.84,27.8-7.11,16.85-4.13,33.73-8.14,50.62-12.12,19.98-4.7,39.98-9.34,59.99-13.91,18.62-4.25,37.25-8.44,55.92-12.48,12.77-2.76,25.54-5.56,38.41-7.82.95-.17,1.9-.33,2.85-.48,2.58-.42,1.48-4.34-1.08-3.92-11.85,1.92-23.6,4.52-35.34,7.03-18.2,3.89-36.35,7.96-54.5,12.08-20.09,4.56-40.16,9.2-60.22,13.91-17.51,4.11-35.01,8.26-52.49,12.51-10.46,2.54-20.95,5.01-31.32,7.9-.58.16-1.16.32-1.73.49-2.5.74-1.44,4.67,1.08,3.92h0Z"/>
        <path class="cls-1" d="M486.48,432.73c9.36-2.77,18.91-4.98,28.38-7.34,17.31-4.31,34.66-8.51,52.01-12.68,20.54-4.93,41.1-9.8,61.68-14.58,19.11-4.45,38.23-8.84,57.38-13.06,13-2.87,26.02-5.79,39.13-8.11.96-.17,1.92-.33,2.88-.49,2.58-.42,1.48-4.34-1.08-3.92-12.05,1.95-24,4.66-35.92,7.26-18.66,4.07-37.28,8.33-55.89,12.64-20.65,4.78-41.28,9.65-61.9,14.58-18,4.31-35.99,8.65-53.95,13.1-10.7,2.65-21.43,5.22-32.05,8.18-.58.16-1.17.33-1.75.5-2.51.74-1.44,4.67,1.08,3.92h0Z"/>
        <path class="cls-1" d="M482.96,446.8c9.55-2.82,19.29-5.06,28.96-7.46,17.78-4.4,35.58-8.7,53.4-12.95,21.1-5.04,42.22-10.02,63.36-14.92,19.59-4.54,39.2-9.03,58.85-13.35,13.24-2.92,26.5-5.89,39.85-8.26.97-.17,1.93-.34,2.9-.49,2.58-.42,1.48-4.34-1.08-3.92-12.24,1.98-24.38,4.74-36.49,7.38-19.12,4.16-38.21,8.51-57.28,12.91-21.21,4.9-42.41,9.88-63.59,14.92-18.49,4.4-36.96,8.85-55.42,13.39-10.94,2.69-21.92,5.31-32.77,8.33-.59.17-1.18.33-1.77.51-2.51.74-1.44,4.67,1.08,3.92h0Z"/>
        <path class="cls-1" d="M485.3,459.69c9.58-2.83,19.27-5.33,28.92-7.91,17.76-4.75,35.54-9.42,53.34-14.06,21.18-5.52,42.37-10.97,63.59-16.33,19.57-4.95,39.15-9.83,58.78-14.51,13.21-3.15,26.44-6.38,39.8-8.81.96-.18,1.92-.34,2.89-.5,2.58-.42,1.48-4.34-1.08-3.92-12.25,1.99-24.38,4.99-36.46,7.83-19.12,4.5-38.18,9.23-57.22,14.02-21.29,5.36-42.56,10.81-63.81,16.33-18.46,4.79-36.92,9.63-55.35,14.54-10.92,2.91-21.85,5.78-32.72,8.89-.59.17-1.17.34-1.76.51-2.5.74-1.44,4.67,1.08,3.92h0Z"/>
        <path class="cls-1" d="M486.48,501.89c9.92-2.95,19.74-6.31,29.57-9.53,18.4-6.01,36.78-12.04,55.19-18.03,21.73-7.07,43.48-14.08,65.27-20.98,20.2-6.39,40.42-12.7,60.74-18.67,13.41-3.94,26.91-8.07,40.64-10.8.98-.19,1.95-.38,2.94-.53,2.58-.42,1.48-4.34-1.08-3.92-12.55,2.04-24.91,5.93-37.1,9.45-19.78,5.71-39.45,11.81-59.08,17.99-21.87,6.88-43.69,13.9-65.5,20.97-19.11,6.2-38.21,12.45-57.31,18.7-11.18,3.66-22.33,7.4-33.56,10.87-.6.19-1.2.37-1.8.55-2.5.74-1.44,4.67,1.08,3.92h0Z"/>
        <path class="cls-1" d="M481.79,517.13c9.98-2.96,19.88-6.2,29.79-9.35,18.45-5.85,36.9-11.72,55.35-17.57,21.77-6.9,43.55-13.78,65.34-20.6,20.19-6.31,40.39-12.59,60.64-18.7,13.4-4.04,26.8-8.18,40.38-11.61.95-.24,1.9-.47,2.85-.7,2.55-.6,1.47-4.52-1.08-3.92-12.39,2.9-24.6,6.73-36.78,10.37-19.69,5.89-39.33,11.98-58.95,18.1-21.87,6.82-43.71,13.71-65.55,20.63-19.16,6.07-38.31,12.16-57.46,18.24-11.26,3.57-22.51,7.2-33.81,10.65-.6.18-1.2.36-1.79.54-2.51.74-1.44,4.67,1.08,3.92h0Z"/>
        <path class="cls-1" d="M478.27,528.85c9.92-2.95,19.74-6.31,29.57-9.53,18.4-6.01,36.78-12.04,55.19-18.03,21.73-7.07,43.48-14.08,65.27-20.98,20.2-6.39,40.42-12.7,60.74-18.67,13.41-3.94,26.91-8.07,40.64-10.8.98-.19,1.95-.38,2.94-.53,2.58-.42,1.48-4.34-1.08-3.92-12.55,2.04-24.91,5.93-37.1,9.45-19.78,5.71-39.45,11.81-59.08,17.99-21.87,6.88-43.69,13.9-65.5,20.97-19.11,6.2-38.21,12.45-57.31,18.7-11.18,3.66-22.33,7.4-33.56,10.87-.6.19-1.2.37-1.8.55-2.5.74-1.44,4.67,1.08,3.92h0Z"/>
        <path class="cls-1" d="M475.93,541.74c9.92-2.95,19.74-6.31,29.57-9.53,18.4-6.01,36.78-12.04,55.19-18.03,21.73-7.07,43.48-14.08,65.27-20.98,20.2-6.39,40.42-12.7,60.74-18.67,13.41-3.94,26.91-8.07,40.64-10.8.98-.19,1.95-.38,2.94-.54,2.58-.42,1.48-4.34-1.08-3.92-12.55,2.04-24.91,5.93-37.1,9.45-19.78,5.71-39.45,11.81-59.08,17.99-21.87,6.88-43.69,13.9-65.5,20.97-19.11,6.2-38.21,12.45-57.31,18.7-11.18,3.66-22.33,7.4-33.56,10.87-.6.19-1.2.37-1.8.55-2.5.75-1.44,4.67,1.08,3.92h0Z"/>
        <path class="cls-1" d="M477.1,551.12c9.92-2.95,19.74-6.31,29.57-9.53,18.4-6.01,36.78-12.04,55.19-18.03,21.73-7.07,43.48-14.08,65.27-20.98,20.2-6.39,40.42-12.7,60.74-18.67,13.41-3.94,26.91-8.07,40.64-10.8.98-.19,1.95-.38,2.94-.53,2.58-.42,1.48-4.34-1.08-3.92-12.55,2.04-24.91,5.93-37.1,9.45-19.78,5.71-39.45,11.81-59.08,17.99-21.87,6.88-43.69,13.9-65.5,20.97-19.11,6.2-38.21,12.45-57.31,18.7-11.18,3.66-22.33,7.4-33.56,10.87-.6.19-1.2.37-1.8.55-2.5.74-1.44,4.67,1.08,3.92h0Z"/>
        <path class="cls-1" d="M478.27,561.67c9.92-2.95,19.74-6.31,29.57-9.53,18.4-6.01,36.78-12.04,55.19-18.03,21.73-7.07,43.48-14.08,65.27-20.98,20.2-6.39,40.42-12.7,60.74-18.67,13.41-3.94,26.91-8.07,40.64-10.8.98-.19,1.95-.38,2.94-.54,2.58-.42,1.48-4.34-1.08-3.92-12.55,2.04-24.91,5.93-37.1,9.45-19.78,5.71-39.45,11.81-59.08,17.99-21.87,6.88-43.69,13.9-65.5,20.97-19.11,6.2-38.21,12.45-57.31,18.7-11.18,3.66-22.33,7.4-33.56,10.87-.6.19-1.2.37-1.8.55-2.5.74-1.44,4.67,1.08,3.92h0Z"/>
        <path class="cls-1" d="M482.96,569.87c9.92-2.95,19.74-6.31,29.57-9.53,18.4-6.01,36.78-12.04,55.19-18.03,21.73-7.07,43.48-14.08,65.27-20.98,20.2-6.39,40.42-12.7,60.74-18.67,13.41-3.94,26.91-8.07,40.64-10.8.98-.19,1.96-.38,2.94-.54,2.58-.42,1.48-4.34-1.08-3.92-12.55,2.04-24.91,5.93-37.1,9.45-19.78,5.71-39.45,11.81-59.08,17.99-21.87,6.88-43.69,13.9-65.5,20.97-19.11,6.2-38.21,12.45-57.31,18.7-11.18,3.66-22.33,7.4-33.56,10.87-.6.19-1.2.37-1.8.55-2.5.74-1.44,4.67,1.08,3.92h0Z"/>
        <path class="cls-1" d="M487.65,470.24c9.89-3.12,19.94-5.79,29.92-8.58,18-5.04,36.01-10.01,54.02-15,21.21-5.87,42.43-11.74,63.63-17.65,19.6-5.46,39.19-10.94,58.75-16.53,13.16-3.76,26.34-7.48,39.38-11.65.93-.3,1.86-.6,2.79-.91,2.47-.82,1.41-4.75-1.08-3.92-11.88,3.95-23.97,7.33-36,10.79-19.02,5.47-38.08,10.82-57.15,16.14-21.26,5.93-42.54,11.83-63.81,17.71-18.66,5.17-37.33,10.32-55.98,15.53-11.23,3.13-22.5,6.2-33.66,9.57-.63.19-1.26.38-1.89.58-2.49.79-1.43,4.71,1.08,3.92h0Z"/>
        <path class="cls-1" d="M491.16,384.68c9.17-2.71,18.52-4.84,27.8-7.11,16.85-4.13,33.73-8.14,50.62-12.12,19.98-4.7,39.98-9.34,59.99-13.91,18.62-4.25,37.25-8.44,55.92-12.48,12.77-2.76,25.54-5.56,38.41-7.82.95-.17,1.9-.33,2.85-.48,2.58-.42,1.48-4.34-1.08-3.92-11.85,1.92-23.6,4.52-35.34,7.03-18.2,3.89-36.35,7.96-54.5,12.08-20.09,4.56-40.16,9.2-60.22,13.91-17.51,4.11-35.01,8.26-52.49,12.51-10.46,2.54-20.95,5.01-31.32,7.9-.58.16-1.16.32-1.73.49-2.5.74-1.44,4.67,1.08,3.92h0Z"/>
        <path class="cls-1" d="M127.09,263.13c-22.16,33.54-30.44,76.32-21.52,115.61,2.35,10.38,6.41,20.75,14.47,28.04,1.94,1.75,4.82-1.11,2.88-2.88-7.04-6.37-10.71-15.21-12.95-24.26-2.32-9.35-3.48-19.02-3.75-28.64-.55-19.22,2.7-38.48,9.42-56.48,3.85-10.32,8.91-20.15,14.98-29.33,1.45-2.19-2.07-4.23-3.51-2.05h0Z"/>
        <path class="cls-1" d="M143.3,265.48c-19.72,33.63-27.38,73.73-22.09,112.3,1.51,11,4.09,21.81,7.72,32.3.85,2.46,4.78,1.4,3.92-1.08-12.5-36.13-12.17-76.13.4-112.19,3.55-10.18,8.11-19.97,13.56-29.27,1.33-2.26-2.19-4.31-3.51-2.05h0Z"/>
        <path class="cls-1" d="M399.51,314.34c-18.98,34.53-27.32,74.68-23.83,113.93.99,11.12,2.91,22.14,5.76,32.94.67,2.53,4.59,1.46,3.92-1.08-9.83-37.31-8.17-77.28,4.36-113.76,3.56-10.36,8.02-20.38,13.3-29.98,1.26-2.29-2.25-4.35-3.51-2.05h0Z"/>
        <path class="cls-1" d="M412.87,316.19c-8.17,17.52-15.33,35.6-19.74,54.46-4.14,17.69-5.72,35.9-4.65,54.04.66,11.22,2.27,22.37,4.5,33.38.52,2.56,4.44,1.48,3.92-1.08-3.74-18.51-5.56-37.4-4.26-56.27,1.22-17.69,5.25-35.04,11.08-51.76,3.65-10.47,7.98-20.68,12.66-30.72,1.1-2.36-2.41-4.43-3.51-2.05h0Z"/>
        <path class="cls-1" d="M505.22,96.29c-21.65,24.16-28.67,59.63-19.45,90.56,2.31,7.75,5.65,15.24,9.99,22.07,1.04,1.64,2.6,3.35,3.23,5.21.87,2.62-1.14,4.86-2.58,6.83-2.21,3.02-4.15,6.22-5.78,9.6-6.92,14.3-8.88,30.64-8.13,46.37.85,17.69,4.97,35.41,12.45,51.49.41-1,.81-1.99,1.22-2.99-8.2,2.67-13.29,9.79-16.71,17.35-4.15,9.19-6.96,19.17-9.34,28.94-5.61,23.06-7.32,47.03-4.53,70.62,1.65,13.96,4.78,27.67,9.19,41.01.47-.83.95-1.67,1.42-2.5-13.52,3.91-19.03,18.29-21.47,30.87-2.9,15-4.15,31.35-1.02,46.4,1.78,8.58,5.36,16.58,11,23.32,1.68,2.01,4.55-.88,2.88-2.88-9.48-11.32-11.77-26.38-11.48-40.71.14-7.24.82-14.52,1.96-21.68.97-6.13,2.39-12.36,5.07-17.99,2.93-6.17,7.4-11.46,14.15-13.41,1.02-.29,1.77-1.44,1.42-2.5-7.3-22.1-11.01-45.23-10.29-68.52.66-21.51,4.97-42.98,12.28-63.22,3.01-8.34,7.42-18.2,16.55-21.17,1.33-.44,1.78-1.77,1.22-2.99-6.48-13.94-10.27-29.3-11.57-44.6-1.31-15.48-.19-31.74,5.9-46.2,1.43-3.41,3.17-6.69,5.19-9.79,2.06-3.15,5.3-6.24,5.32-10.26.02-3.98-3.25-7.32-5.19-10.55-2.1-3.51-3.96-7.18-5.51-10.96-5.97-14.54-7.9-30.61-6.05-46.19,2.13-17.91,9.47-35.21,21.54-48.68,1.74-1.94-1.13-4.83-2.88-2.88h0Z"/>
        <ellipse class="cls-1" cx="111.14" cy="449.55" rx="25.44" ry="27.4" transform="translate(-350.95 479.79) rotate(-79.86)"/>
      </g>
    </g>
    <g>
      <path class="cls-1" d="M767.82,121.18c28.4-7.54,34.51-13.64,42.04-42.04,7.53,28.4,13.64,34.51,42.04,42.04-28.4,7.54-34.51,13.64-42.04,42.04-7.54-28.4-13.64-34.51-42.04-42.04Z"/>
      <path class="cls-1" d="M853.64,84.6c13.17-3.49,16-6.32,19.49-19.49,3.49,13.17,6.32,16,19.49,19.49-13.17,3.49-16,6.32-19.49,19.49-3.49-13.17-6.32-16-19.49-19.49Z"/>
      <path class="cls-1" d="M856.97,146.34h6.63v6.63c0,1.96,3.05,1.97,3.05,0v-6.63h6.18c1.96,0,1.97-3.05,0-3.05h-6.18v-5.73c0-1.96-3.05-1.97-3.05,0v5.73h-6.63c-1.96,0-1.97,3.05,0,3.05Z"/>
      <path class="cls-1" d="M821.79,37.11h6.63v6.63c0,1.96,3.05,1.97,3.05,0v-6.63h6.18c1.96,0,1.97-3.05,0-3.05h-6.18v-5.73c0-1.96-3.05-1.97-3.05,0v5.73h-6.63c-1.96,0-1.97,3.05,0,3.05Z"/>
    </g>
    <path class="cls-1" d="M20.04,280.48c1.71-2.73-2.61-5.25-4.32-2.52-7.77,12.4-12.71,26.49-14.69,40.97-1.99,14.6-1.11,29.57,2.81,43.79,2.2,7.97,5.37,15.69,9.43,22.9,1.58,2.8,5.9.29,4.32-2.52-6.85-12.17-10.98-25.83-12.2-39.74-1.23-13.96.3-28.1,4.63-41.43,2.45-7.54,5.81-14.72,10.02-21.44Z"/>
    <path class="cls-1" d="M12.58,417.53c-4.77,8.34-5.87,18.56-2.87,27.7,1,3.05,5.83,1.74,4.82-1.33-2.59-7.91-1.77-16.61,2.37-23.85,1.6-2.8-2.72-5.32-4.32-2.52Z"/>
  </g>
</svg>